# xmcd CD database file
#
# Track frame offsets:
#	150
#	20140
#	39840
#	55555
#	72710
#	88682
#	103210
#	120655
#	138895
#	160320
#	178497
#
# Disc length: 2731 seconds
#
# Revision: 1
# Processed by: cddbd v1.5.2PL0 Copyright (c) Steve Scherf et al.
# Submitted via: CDex 1.51
#
DISCID=9b0aa90b
DTITLE=Denise LaSalle - Love Me Right
DYEAR=1992
DGENRE=Blues
TTITLE0=01 - Don't Jump My Pony
TTITLE1=02 - Long Dong Silver
TTITLE2=03 - You Can't Get Nothin' Straight Between Us
TTITLE3=04 - Love Me Right
TTITLE4=05 - When We're Making Love
TTITLE5=06 - I'm Not That Kind Of Girl
TTITLE6=07 - Too Many Hungry Mouths Around The Table
TTITLE7=08 - One More Wrong Step
TTITLE8=09 - Fast Hands And A Dirty Mind
TTITLE9=10 - Another One Bites The Dust
TTITLE10=11 - Don't Pick It Up
EXTD=YEAR: 1992
EXTT0=
EXTT1=
EXTT2=
EXTT3=
EXTT4=
EXTT5=
EXTT6=
EXTT7=
EXTT8=
EXTT9=
EXTT10=
PLAYORDER=
